<?xml version="1.0" encoding="utf-8"?>
<!-- Generator: Adobe Illustrator 22.1.0, SVG Export Plug-In . SVG Version: 6.00 Build 0)  -->
<svg version="1.1" xmlns="http://www.w3.org/2000/svg" xmlns:xlink="http://www.w3.org/1999/xlink" x="0px" y="0px"
	 viewBox="0 0 662.9 511.5" style="enable-background:new 0 0 662.9 511.5;" xml:space="preserve">
<style type="text/css">
	.st0{fill:#005677;}
	.st1{fill:#00BABE;}
</style>
<g id="Layer_1">
</g>
<g id="Isolation_Mode">
	<g>
		<g>
			<g>
				<path class="st0" d="M426.9,271l-85.7,49.2c-5.8,3.3-15.9,3.3-21.7,0l-115.2-66.5c-5.8-3.3-10.8-12.1-10.8-18.7V102
					c0-6.7,5.1-15.4,10.8-18.7l115.2-66.5c5.8-3.3,15.9-3.3,21.6,0l115.2,66.6c2,1.2,2.4,2.1,2.4,2.1c0,0.1-0.3,1-2.4,2.2l-43.2,25
					c-5.8,3.3-15.9,3.3-21.6,0l-43.2-25c-10.1-5.8-25.8-5.8-35.9,0l-43.2,24.9c-6,3.5-9.5,8.8-9.5,14.5c0,5.7,3.5,11,9.5,14.5
					l115.2,66.5c2,1.2,2.4,2.1,2.4,2.1c0,0.1-0.3,1-2.4,2.2l-43.2,25c-5.8,3.4-16.2,3.5-22.1,0.3l-52-27.9c-1.7-0.9-3.6-1.1-5.4-0.5
					c-1.8,0.6-3.3,1.8-4.2,3.5c-0.9,1.7-1.1,3.6-0.5,5.4c0.5,1.8,1.8,3.3,3.5,4.2l52,27.9c10.2,5.5,26,5.2,36-0.6l43.2-25
					c6-3.5,9.5-8.8,9.5-14.5c0-5.7-3.5-11-9.5-14.5L276.3,129c-2-1.2-2.4-2.1-2.4-2.1c0-0.1,0.3-1,2.4-2.2l43.2-24.9
					c5.8-3.3,15.9-3.3,21.7,0l43.2,25c10.1,5.8,25.8,5.8,35.9,0l43.2-25c6-3.5,9.5-8.8,9.5-14.5c0-5.7-3.5-11-9.5-14.5L348.3,4.4
					c-10.1-5.8-25.8-5.8-35.9,0L197.2,70.9c-10.1,5.8-17.9,19.5-17.9,31.1V235c0,11.6,7.9,25.3,18,31.1l115.2,66.5
					c4.9,2.8,11.3,4.4,17.9,4.4c6.7,0,13.1-1.5,18-4.4l85.7-49.2c3.4-2,4.6-6.3,2.6-9.7C434.6,270.2,430.2,269,426.9,271z"/>
			</g>
			<g>
				<polygon class="st1" points="444.6,227 418,242.5 452.6,262.5 454.8,263.7 454.7,306.1 481.1,290.8 481.3,290.7 481.4,248.3 
									"/>
			</g>
		</g>
		<g>
			<g>
				<g>
					<g>
						<g>
							<g>
								<path class="st0" d="M329.9,381.9h0.2c2.1,0,3.8-1.7,3.8-3.8c0-1.1-0.4-2-1.1-2.7c-0.7-0.7-1.6-1.1-2.7-1.1h-0.2
									c-2.1,0-3.8,1.7-3.8,3.8C326.1,380.2,327.8,381.9,329.9,381.9z"/>
							</g>
						</g>
					</g>
				</g>
				<g>
					<g>
						<g>
							<g>
								<path class="st0" d="M383.5,392.6h-30.7c-3,0-5.4,2.4-5.4,5.4V442h-5c-4.7,0-7.6-1.9-8.5-5.6V397c0-2.2-1.8-3.9-3.9-3.9
									c-2.2,0-3.9,1.8-3.9,3.9v20h-12.7v-6.5c0-11.9-5.9-18-17.5-18h-55.7v-14.4c0-2.2-1.8-3.9-3.9-3.9c-1.1,0-2.1,0.4-2.8,1.2
									c-0.7,0.7-1.2,1.7-1.2,2.8v14.4h-54.1c-8.6,0-12.9,4.2-12.9,12.4v6.4c0,7.6,4.2,11.5,12.4,11.5h22.6c4.4,0,6.6,2,6.6,6.1
									v6.4c0,4.5-2.5,6.7-7.6,6.7h-30c-0.2,0-0.4,0-0.6,0.1h-1c-4.7,0-7.6-1.9-8.5-5.6V397c0-1.1-0.5-2.1-1.3-2.9
									c-0.9-1.1-2.3-1.7-3.9-1.4c-1.8,0.4-3,2.1-3,3.9v32.8c0,7.6-3.8,11.5-11.2,11.5h-15.4c-7.3,0-11.1-3.9-11.1-11.5V398
									c0-2.9-2.4-5.3-5.3-5.3h-2.6v-0.1H58.4c-8.6,0-12.9,4.2-12.9,12.4v6.4c0,7.6,4.2,11.5,12.4,11.5h22.6c4.4,0,6.6,2,6.6,6.1
									v6.4c0,4.5-2.5,6.7-7.6,6.7H48.9c-1.9,0-3.4,1.5-3.4,3.4c0,1.9,1.5,3.4,3.4,3.4h32.6c8.8,0,13.2-4.2,13.2-12.5v-8.2
									c0-7.6-4.1-11.5-12.3-11.5H59.8c-4.5,0-6.7-2-6.7-6.1V406c0-4.4,2.4-6.7,7.2-6.7h45v31.4c0,11.9,5.8,18,17.5,18h18.2
									c5.8,0,10.2-1.5,13.1-4.5c1.2,1.5,2.8,2.7,4.9,3.4h0c2,0.7,4.3,1.1,7.1,1.1h10.1l0-0.1h25c8.8,0,13.2-4.2,13.2-12.5v-8.2
									c0-7.6-4.1-11.5-12.3-11.5h-22.6c-4.5,0-6.7-2-6.7-6.1V406c0-4.4,2.4-6.7,7.2-6.7h41.7v0.2h10.5v45.3c0,2.2,1.8,3.9,3.9,3.9
									c1.1,0,2.1-0.4,2.8-1.2c0.7-0.7,1.2-1.7,1.2-2.8v-44.6h54.7c7.1,0,10.7,3.8,10.7,11.1v5.7h-30.2c-9.6,0-14.2,4.2-14.2,12.5
									v4.4c0,9.9,5,14.9,15,14.9h19.8c11.6,0,17.5-6,17.5-18v-7.4h12.7v11.1c0.1,6.9,2.7,11.4,7.8,13.3h0c2,0.7,4.3,1.1,7.1,1.1
									h10.1v-0.1h4.1v-48.3H382c7.4,0,11.2,3.8,11.2,11.4v33c0,2.2,1.8,3.9,3.9,3.9c1.1,0,2.1-0.4,2.8-1.2
									c0.7-0.7,1.2-1.7,1.2-2.8v-34.3C401,398.6,395.2,392.6,383.5,392.6z M305.6,430.6c0,7.6-3.7,11.4-11,11.4h-17.1
									c-5.8,0-8.8-2.9-8.8-8.6v-2.6c0-5,2.9-7.4,8.7-7.4h28.2V430.6z"/>
							</g>
						</g>
					</g>
				</g>
			</g>
			<g>
				<g>
					<g>
						<g>
							<path class="st1" d="M434.1,449c-19.4,0-24-11.3-24-28.6c0-17.2,4.6-28.6,24-28.6h27.3v12.4h-20.8c-11,0-13.3,6.5-13.3,16.2
								c0,9.7,2.3,16.2,13.3,16.2h22V449H434.1z"/>
						</g>
					</g>
				</g>
				<g>
					<g>
						<g>
							<path class="st1" d="M488.1,449c-18.3,0-21.8-7.8-21.8-28.8c0-24.3,6.5-29,29.1-29c18.9,0,29.1,3,29.1,23
								c0,6.5-1.9,11.9-8.9,11.9h-32.2c0,7,2.3,10.9,11.4,10.9h27.8V449H488.1z M504.3,414.4c3,0,3.1-2,3.1-3.4
								c0-5.8-6.6-7.7-12-7.7c-8.1,0-12.1,2.7-12.1,11.1H504.3z"/>
						</g>
					</g>
				</g>
				<g>
					<g>
						<g>
							<path class="st1" d="M532,414.5c0-16.8,8.7-22.6,25.5-22.6h11.3v12.4h-6.7c-9.9,0-13.4,5.3-13.4,15.2V449H532V414.5z"/>
						</g>
					</g>
				</g>
				<g>
					<g>
						<g>
							<path class="st1" d="M603.2,449c-12.4,0-21.2-5-21.2-19v-25.8h-8v-12.4h8v-18.3h16.8v18.3H615v12.4h-16.2v19.6
								c0,8.6,3.9,12.7,13,12.7h3.1V449H603.2z"/>
						</g>
					</g>
				</g>
			</g>
		</g>
		<g>
			<path class="st0" d="M4.5,477v16.4c0,1.9,0.4,3.5,1.3,4.5c0.9,1.1,2.3,1.6,4.1,1.6c1.3,0,2.6-0.3,3.7-0.9
				c1.2-0.6,2.2-1.5,3.2-2.6v-19h4.5v25.7h-2.7c-0.6,0-1.1-0.3-1.2-0.9l-0.4-2.8c-1.1,1.2-2.4,2.2-3.8,3c-1.4,0.8-3,1.1-4.8,1.1
				c-1.4,0-2.6-0.2-3.7-0.7c-1.1-0.5-2-1.1-2.7-2c-0.7-0.8-1.3-1.9-1.6-3.1c-0.4-1.2-0.5-2.5-0.5-4V477H4.5z"/>
			<path class="st0" d="M42.6,481.2c-0.2,0.4-0.5,0.6-0.9,0.6c-0.3,0-0.5-0.1-0.9-0.3c-0.3-0.2-0.7-0.4-1.2-0.6s-1-0.4-1.7-0.6
				c-0.6-0.2-1.4-0.3-2.3-0.3c-0.8,0-1.4,0.1-2.1,0.3c-0.6,0.2-1.1,0.5-1.6,0.8c-0.4,0.3-0.8,0.7-1,1.2c-0.2,0.4-0.3,0.9-0.3,1.5
				c0,0.7,0.2,1.2,0.6,1.7s0.9,0.8,1.5,1.1c0.6,0.3,1.3,0.6,2.1,0.9s1.6,0.5,2.5,0.8c0.8,0.3,1.7,0.6,2.5,0.9
				c0.8,0.3,1.5,0.8,2.1,1.3c0.6,0.5,1.1,1.1,1.5,1.9c0.4,0.7,0.6,1.6,0.6,2.7c0,1.2-0.2,2.3-0.6,3.3c-0.4,1-1.1,1.9-1.9,2.6
				c-0.8,0.7-1.8,1.3-3,1.7c-1.2,0.4-2.6,0.6-4.2,0.6c-1.8,0-3.4-0.3-4.9-0.9c-1.5-0.6-2.7-1.3-3.7-2.2l1.1-1.7
				c0.1-0.2,0.3-0.4,0.5-0.5c0.2-0.1,0.4-0.2,0.7-0.2s0.6,0.1,1,0.4c0.3,0.2,0.7,0.5,1.2,0.8c0.5,0.3,1.1,0.6,1.8,0.8
				c0.7,0.2,1.5,0.4,2.6,0.4c0.9,0,1.7-0.1,2.3-0.3c0.7-0.2,1.2-0.5,1.7-0.9s0.8-0.8,1-1.3c0.2-0.5,0.3-1,0.3-1.6
				c0-0.7-0.2-1.3-0.6-1.8c-0.4-0.5-0.9-0.9-1.5-1.2c-0.6-0.3-1.3-0.6-2.1-0.9c-0.8-0.2-1.6-0.5-2.5-0.8c-0.8-0.3-1.7-0.6-2.5-0.9
				c-0.8-0.3-1.5-0.8-2.1-1.3c-0.6-0.5-1.1-1.2-1.5-1.9c-0.4-0.8-0.6-1.7-0.6-2.8c0-1,0.2-1.9,0.6-2.8c0.4-0.9,1-1.7,1.8-2.4
				c0.8-0.7,1.7-1.2,2.9-1.6s2.4-0.6,3.9-0.6c1.7,0,3.2,0.3,4.6,0.8c1.3,0.5,2.5,1.3,3.5,2.2L42.6,481.2z"/>
			<path class="st0" d="M59.1,476.6c1.5,0,3,0.3,4.3,0.8c1.3,0.5,2.4,1.3,3.4,2.2c0.9,1,1.7,2.2,2.2,3.6c0.5,1.4,0.8,3.1,0.8,4.9
				c0,0.7-0.1,1.2-0.2,1.4s-0.4,0.4-0.9,0.4H51.5c0,1.6,0.3,3,0.7,4.2c0.4,1.2,1,2.2,1.7,3c0.7,0.8,1.6,1.4,2.5,1.8
				c1,0.4,2.1,0.6,3.3,0.6c1.1,0,2.1-0.1,2.9-0.4c0.8-0.3,1.5-0.5,2.1-0.9c0.6-0.3,1.1-0.6,1.5-0.9c0.4-0.3,0.7-0.4,1-0.4
				c0.4,0,0.7,0.1,0.9,0.4l1.3,1.7c-0.6,0.7-1.2,1.3-2,1.8c-0.8,0.5-1.6,0.9-2.5,1.2c-0.9,0.3-1.8,0.6-2.8,0.7
				c-0.9,0.2-1.9,0.2-2.8,0.2c-1.8,0-3.4-0.3-4.9-0.9s-2.8-1.5-3.9-2.6s-1.9-2.6-2.6-4.3c-0.6-1.7-0.9-3.7-0.9-5.9
				c0-1.8,0.3-3.5,0.8-5c0.6-1.6,1.3-2.9,2.4-4.1c1-1.1,2.3-2,3.8-2.7C55.5,476.9,57.2,476.6,59.1,476.6z M59.2,479.9
				c-2.2,0-3.9,0.6-5.2,1.9c-1.3,1.3-2,3-2.3,5.2h14c0-1-0.1-2-0.4-2.9s-0.7-1.6-1.3-2.3c-0.6-0.6-1.2-1.1-2-1.5
				C61.1,480.1,60.2,479.9,59.2,479.9z"/>
			<path class="st0" d="M74.5,502.7V477h2.6c0.5,0,0.8,0.1,1,0.3c0.2,0.2,0.3,0.5,0.4,1l0.3,4c0.9-1.8,2-3.2,3.3-4.2
				s2.8-1.5,4.6-1.5c0.7,0,1.4,0.1,1.9,0.2c0.6,0.2,1.1,0.4,1.6,0.7l-0.6,3.4c-0.1,0.4-0.4,0.6-0.8,0.6c-0.2,0-0.6-0.1-1.1-0.2
				c-0.5-0.2-1.2-0.2-2.1-0.2c-1.6,0-2.9,0.5-4,1.4c-1.1,0.9-1.9,2.2-2.7,4v16.4H74.5z"/>
			<path class="st0" d="M92.8,485.6h12.5v3.8H92.8V485.6z"/>
			<path class="st0" d="M128.1,481.6c-0.1,0.2-0.3,0.3-0.4,0.4s-0.3,0.2-0.6,0.2s-0.5-0.1-0.8-0.3c-0.3-0.2-0.7-0.4-1.1-0.7
				c-0.5-0.3-1-0.5-1.7-0.7s-1.5-0.3-2.4-0.3c-1.3,0-2.4,0.2-3.3,0.7c-1,0.4-1.8,1.1-2.4,1.9c-0.7,0.8-1.1,1.9-1.5,3.1
				c-0.3,1.2-0.5,2.5-0.5,4c0,1.6,0.2,2.9,0.5,4.2c0.4,1.2,0.9,2.2,1.5,3c0.6,0.8,1.4,1.4,2.3,1.9s2,0.6,3.1,0.6
				c1.1,0,2-0.1,2.7-0.4c0.7-0.3,1.3-0.6,1.8-0.9c0.5-0.3,0.9-0.6,1.2-0.9c0.3-0.3,0.6-0.4,0.9-0.4c0.4,0,0.7,0.1,0.9,0.4l1.3,1.7
				c-1.1,1.4-2.5,2.4-4.2,3s-3.4,1-5.3,1c-1.6,0-3.1-0.3-4.5-0.9c-1.4-0.6-2.6-1.5-3.6-2.6c-1-1.1-1.8-2.5-2.4-4.2
				c-0.6-1.6-0.9-3.5-0.9-5.6c0-1.9,0.3-3.7,0.8-5.3c0.5-1.6,1.3-3,2.3-4.2c1-1.2,2.3-2.1,3.8-2.8c1.5-0.7,3.2-1,5.2-1
				c1.8,0,3.4,0.3,4.8,0.9c1.4,0.6,2.6,1.4,3.7,2.5L128.1,481.6z"/>
			<path class="st0" d="M143.5,476.6c1.5,0,3,0.3,4.3,0.8c1.3,0.5,2.4,1.3,3.4,2.2c0.9,1,1.7,2.2,2.2,3.6c0.5,1.4,0.8,3.1,0.8,4.9
				c0,0.7-0.1,1.2-0.2,1.4s-0.4,0.4-0.9,0.4h-17.1c0,1.6,0.3,3,0.7,4.2c0.4,1.2,1,2.2,1.7,3c0.7,0.8,1.6,1.4,2.5,1.8
				c1,0.4,2.1,0.6,3.3,0.6c1.1,0,2.1-0.1,2.9-0.4c0.8-0.3,1.5-0.5,2.1-0.9c0.6-0.3,1.1-0.6,1.5-0.9c0.4-0.3,0.7-0.4,1-0.4
				c0.4,0,0.7,0.1,0.9,0.4l1.3,1.7c-0.6,0.7-1.2,1.3-2,1.8c-0.8,0.5-1.6,0.9-2.5,1.2c-0.9,0.3-1.8,0.6-2.8,0.7
				c-0.9,0.2-1.9,0.2-2.8,0.2c-1.8,0-3.4-0.3-4.9-0.9s-2.8-1.5-3.9-2.6s-1.9-2.6-2.6-4.3c-0.6-1.7-0.9-3.7-0.9-5.9
				c0-1.8,0.3-3.5,0.8-5c0.6-1.6,1.3-2.9,2.4-4.1c1-1.1,2.3-2,3.8-2.7C139.9,476.9,141.6,476.6,143.5,476.6z M143.6,479.9
				c-2.2,0-3.9,0.6-5.2,1.9c-1.3,1.3-2,3-2.3,5.2h14c0-1-0.1-2-0.4-2.9s-0.7-1.6-1.3-2.3c-0.6-0.6-1.2-1.1-2-1.5
				C145.5,480.1,144.6,479.9,143.6,479.9z"/>
			<path class="st0" d="M158.9,502.7V477h2.7c0.6,0,1,0.3,1.2,0.9l0.4,2.8c1.1-1.2,2.4-2.2,3.7-3c1.4-0.8,3-1.1,4.8-1.1
				c1.4,0,2.6,0.2,3.7,0.7c1.1,0.5,2,1.1,2.7,2c0.7,0.9,1.3,1.9,1.6,3.1c0.4,1.2,0.6,2.5,0.6,4v16.4h-4.5v-16.4
				c0-1.9-0.4-3.5-1.3-4.5c-0.9-1.1-2.2-1.6-4.1-1.6c-1.3,0-2.6,0.3-3.7,1c-1.2,0.6-2.2,1.5-3.2,2.6v19H158.9z"/>
			<path class="st0" d="M193.9,503.1c-2,0-3.6-0.6-4.7-1.7c-1.1-1.1-1.6-2.8-1.6-4.9v-15.8h-3.1c-0.3,0-0.5-0.1-0.7-0.2
				c-0.2-0.2-0.3-0.4-0.3-0.7V478l4.2-0.5l1-8c0-0.3,0.1-0.5,0.3-0.6c0.2-0.2,0.4-0.2,0.7-0.2h2.3v8.9h7.4v3.3h-7.4v15.4
				c0,1.1,0.3,1.9,0.8,2.4c0.5,0.5,1.2,0.8,2,0.8c0.5,0,0.9-0.1,1.2-0.2c0.3-0.1,0.6-0.3,0.9-0.4s0.5-0.3,0.6-0.4s0.3-0.2,0.5-0.2
				c0.2,0,0.4,0.1,0.6,0.4l1.3,2.2c-0.8,0.7-1.7,1.3-2.8,1.7S195.1,503.1,193.9,503.1z"/>
			<path class="st0" d="M204,502.7V477h2.6c0.5,0,0.8,0.1,1,0.3c0.2,0.2,0.3,0.5,0.4,1l0.3,4c0.9-1.8,2-3.2,3.3-4.2s2.8-1.5,4.6-1.5
				c0.7,0,1.4,0.1,1.9,0.2c0.6,0.2,1.1,0.4,1.6,0.7l-0.6,3.4c-0.1,0.4-0.4,0.6-0.8,0.6c-0.2,0-0.6-0.1-1.1-0.2
				c-0.5-0.2-1.2-0.2-2.1-0.2c-1.6,0-2.9,0.5-4,1.4c-1.1,0.9-1.9,2.2-2.7,4v16.4H204z"/>
			<path class="st0" d="M229.5,468.9c0,0.4-0.1,0.9-0.3,1.2c-0.2,0.4-0.4,0.7-0.7,1c-0.3,0.3-0.6,0.5-1,0.7
				c-0.4,0.2-0.8,0.3-1.2,0.3c-0.4,0-0.9-0.1-1.2-0.3c-0.4-0.2-0.7-0.4-1-0.7c-0.3-0.3-0.5-0.6-0.7-1c-0.2-0.4-0.3-0.8-0.3-1.2
				s0.1-0.9,0.3-1.3c0.2-0.4,0.4-0.7,0.7-1c0.3-0.3,0.6-0.5,1-0.7c0.4-0.2,0.8-0.3,1.2-0.3c0.4,0,0.9,0.1,1.2,0.3
				c0.4,0.2,0.7,0.4,1,0.7c0.3,0.3,0.5,0.6,0.7,1C229.5,468.1,229.5,468.5,229.5,468.9z M228.5,477v25.7H224V477H228.5z"/>
			<path class="st0" d="M253,481.6c-0.1,0.2-0.3,0.3-0.4,0.4s-0.3,0.2-0.6,0.2s-0.5-0.1-0.8-0.3c-0.3-0.2-0.7-0.4-1.1-0.7
				c-0.5-0.3-1-0.5-1.7-0.7s-1.5-0.3-2.4-0.3c-1.3,0-2.4,0.2-3.3,0.7c-1,0.4-1.8,1.1-2.4,1.9c-0.7,0.8-1.1,1.9-1.5,3.1
				c-0.3,1.2-0.5,2.5-0.5,4c0,1.6,0.2,2.9,0.5,4.2c0.4,1.2,0.9,2.2,1.5,3c0.6,0.8,1.4,1.4,2.3,1.9s2,0.6,3.1,0.6
				c1.1,0,2-0.1,2.7-0.4c0.7-0.3,1.3-0.6,1.8-0.9c0.5-0.3,0.9-0.6,1.2-0.9c0.3-0.3,0.6-0.4,0.9-0.4c0.4,0,0.7,0.1,0.9,0.4l1.3,1.7
				c-1.1,1.4-2.5,2.4-4.2,3s-3.4,1-5.3,1c-1.6,0-3.1-0.3-4.5-0.9c-1.4-0.6-2.6-1.5-3.6-2.6c-1-1.1-1.8-2.5-2.4-4.2
				c-0.6-1.6-0.9-3.5-0.9-5.6c0-1.9,0.3-3.7,0.8-5.3c0.5-1.6,1.3-3,2.3-4.2c1-1.2,2.3-2.1,3.8-2.8c1.5-0.7,3.2-1,5.2-1
				c1.8,0,3.4,0.3,4.8,0.9c1.4,0.6,2.6,1.4,3.7,2.5L253,481.6z"/>
			<path class="st0" d="M273,468.9c0,0.4-0.1,0.9-0.3,1.2c-0.2,0.4-0.4,0.7-0.7,1c-0.3,0.3-0.6,0.5-1,0.7c-0.4,0.2-0.8,0.3-1.2,0.3
				c-0.4,0-0.9-0.1-1.2-0.3c-0.4-0.2-0.7-0.4-1-0.7c-0.3-0.3-0.5-0.6-0.7-1c-0.2-0.4-0.3-0.8-0.3-1.2s0.1-0.9,0.3-1.3
				c0.2-0.4,0.4-0.7,0.7-1c0.3-0.3,0.6-0.5,1-0.7c0.4-0.2,0.8-0.3,1.2-0.3c0.4,0,0.9,0.1,1.2,0.3c0.4,0.2,0.7,0.4,1,0.7
				c0.3,0.3,0.5,0.6,0.7,1C273,468.1,273,468.5,273,468.9z M272,477v25.7h-4.5V477H272z"/>
			<path class="st0" d="M279,502.7V477h2.7c0.6,0,1,0.3,1.2,0.9l0.3,2.6c0.9-1.2,2-2.1,3.2-2.9s2.5-1.1,4.1-1.1
				c1.7,0,3.2,0.5,4.2,1.4c1.1,1,1.8,2.3,2.3,3.9c0.4-0.9,0.8-1.7,1.4-2.4c0.6-0.7,1.2-1.2,2-1.7c0.7-0.4,1.5-0.8,2.3-1
				s1.7-0.3,2.5-0.3c1.4,0,2.6,0.2,3.6,0.6s2,1.1,2.7,1.9c0.7,0.8,1.3,1.9,1.7,3.1s0.6,2.6,0.6,4.2v16.4h-4.5v-16.4
				c0-2-0.4-3.5-1.3-4.6c-0.9-1-2.2-1.6-3.8-1.6c-0.7,0-1.5,0.1-2.1,0.4c-0.7,0.3-1.3,0.6-1.8,1.2c-0.5,0.5-0.9,1.1-1.2,1.9
				c-0.3,0.8-0.4,1.7-0.4,2.7v16.4h-4.5v-16.4c0-2.1-0.4-3.6-1.2-4.6c-0.8-1-2-1.5-3.6-1.5c-1.1,0-2.2,0.3-3.1,0.9
				c-1,0.6-1.8,1.4-2.6,2.5v19.2H279z"/>
			<path class="st0" d="M319.7,511.5V477h2.7c0.6,0,1,0.3,1.2,0.9l0.4,3c1.1-1.3,2.4-2.4,3.8-3.2c1.4-0.8,3-1.2,4.9-1.2
				c1.5,0,2.8,0.3,4,0.9c1.2,0.6,2.2,1.4,3.1,2.5s1.5,2.5,2,4.1s0.7,3.5,0.7,5.7c0,1.9-0.3,3.7-0.8,5.3c-0.5,1.6-1.2,3-2.2,4.2
				c-0.9,1.2-2.1,2.1-3.5,2.8c-1.4,0.7-2.9,1-4.7,1c-1.6,0-3-0.3-4.1-0.8s-2.1-1.3-3-2.2v11.4H319.7z M331.1,480.2
				c-1.5,0-2.8,0.3-3.9,1c-1.1,0.7-2.1,1.6-3.1,2.9v12.4c0.8,1.1,1.7,1.9,2.7,2.4s2.1,0.7,3.3,0.7c2.4,0,4.2-0.9,5.5-2.6
				c1.3-1.7,1.9-4.1,1.9-7.3c0-1.7-0.1-3.1-0.4-4.3c-0.3-1.2-0.7-2.2-1.3-3s-1.2-1.3-2.1-1.7C333.1,480.4,332.2,480.2,331.1,480.2z"
				/>
			<path class="st0" d="M365.6,502.7h-2c-0.4,0-0.8-0.1-1.1-0.2c-0.3-0.1-0.4-0.4-0.5-0.9l-0.5-2.4c-0.7,0.6-1.3,1.2-2,1.6
				c-0.6,0.5-1.3,0.9-2,1.2s-1.5,0.6-2.3,0.7c-0.8,0.2-1.7,0.3-2.7,0.3c-1,0-1.9-0.1-2.8-0.4c-0.9-0.3-1.6-0.7-2.3-1.3
				s-1.2-1.3-1.5-2.1c-0.4-0.9-0.6-1.9-0.6-3c0-1,0.3-2,0.8-2.9c0.6-0.9,1.5-1.8,2.7-2.5c1.2-0.7,2.9-1.3,4.9-1.8
				c2-0.5,4.5-0.7,7.4-0.7v-2c0-2-0.4-3.5-1.3-4.6s-2.1-1.5-3.8-1.5c-1.1,0-2,0.1-2.8,0.4c-0.8,0.3-1.4,0.6-2,0.9
				c-0.6,0.3-1,0.7-1.4,0.9c-0.4,0.3-0.8,0.4-1.2,0.4c-0.3,0-0.6-0.1-0.8-0.2c-0.2-0.2-0.4-0.4-0.5-0.6l-0.8-1.4
				c1.4-1.4,3-2.4,4.6-3.1c1.6-0.7,3.5-1,5.5-1c1.4,0,2.7,0.2,3.8,0.7c1.1,0.5,2.1,1.1,2.8,2c0.8,0.8,1.3,1.9,1.7,3.1
				c0.4,1.2,0.6,2.5,0.6,4V502.7z M353.9,500c0.8,0,1.5-0.1,2.2-0.2c0.7-0.2,1.3-0.4,1.9-0.7c0.6-0.3,1.1-0.7,1.7-1.1
				c0.5-0.4,1.1-0.9,1.6-1.4v-5.3c-2.1,0-3.9,0.1-5.3,0.4c-1.5,0.3-2.6,0.6-3.6,1c-0.9,0.4-1.6,0.9-2,1.5s-0.6,1.2-0.6,1.9
				c0,0.7,0.1,1.3,0.3,1.8c0.2,0.5,0.5,0.9,0.9,1.2c0.4,0.3,0.8,0.5,1.3,0.7C352.7,499.9,353.3,500,353.9,500z"/>
			<path class="st0" d="M389,481.6c-0.1,0.2-0.3,0.3-0.4,0.4s-0.3,0.2-0.6,0.2s-0.5-0.1-0.8-0.3c-0.3-0.2-0.7-0.4-1.1-0.7
				c-0.5-0.3-1-0.5-1.7-0.7s-1.5-0.3-2.4-0.3c-1.3,0-2.4,0.2-3.3,0.7c-1,0.4-1.8,1.1-2.4,1.9c-0.7,0.8-1.1,1.9-1.5,3.1
				c-0.3,1.2-0.5,2.5-0.5,4c0,1.6,0.2,2.9,0.5,4.2c0.4,1.2,0.9,2.2,1.5,3c0.6,0.8,1.4,1.4,2.3,1.9s2,0.6,3.1,0.6
				c1.1,0,2-0.1,2.7-0.4c0.7-0.3,1.3-0.6,1.8-0.9c0.5-0.3,0.9-0.6,1.2-0.9c0.3-0.3,0.6-0.4,0.9-0.4c0.4,0,0.7,0.1,0.9,0.4l1.3,1.7
				c-1.1,1.4-2.5,2.4-4.2,3s-3.4,1-5.3,1c-1.6,0-3.1-0.3-4.5-0.9c-1.4-0.6-2.6-1.5-3.6-2.6c-1-1.1-1.8-2.5-2.4-4.2
				c-0.6-1.6-0.9-3.5-0.9-5.6c0-1.9,0.3-3.7,0.8-5.3c0.5-1.6,1.3-3,2.3-4.2c1-1.2,2.3-2.1,3.8-2.8c1.5-0.7,3.2-1,5.2-1
				c1.8,0,3.4,0.3,4.8,0.9c1.4,0.6,2.6,1.4,3.7,2.5L389,481.6z"/>
			<path class="st0" d="M402,503.1c-2,0-3.6-0.6-4.7-1.7c-1.1-1.1-1.6-2.8-1.6-4.9v-15.8h-3.1c-0.3,0-0.5-0.1-0.7-0.2
				c-0.2-0.2-0.3-0.4-0.3-0.7V478l4.2-0.5l1-8c0-0.3,0.1-0.5,0.3-0.6c0.2-0.2,0.4-0.2,0.7-0.2h2.3v8.9h7.4v3.3h-7.4v15.4
				c0,1.1,0.3,1.9,0.8,2.4c0.5,0.5,1.2,0.8,2,0.8c0.5,0,0.9-0.1,1.2-0.2c0.3-0.1,0.6-0.3,0.9-0.4s0.5-0.3,0.6-0.4s0.3-0.2,0.5-0.2
				c0.2,0,0.4,0.1,0.6,0.4l1.3,2.2c-0.8,0.7-1.7,1.3-2.8,1.7S403.1,503.1,402,503.1z"/>
			<path class="st0" d="M439.8,502.7h-2c-0.4,0-0.8-0.1-1.1-0.2c-0.3-0.1-0.4-0.4-0.5-0.9l-0.5-2.4c-0.7,0.6-1.3,1.2-2,1.6
				c-0.6,0.5-1.3,0.9-2,1.2s-1.5,0.6-2.3,0.7c-0.8,0.2-1.7,0.3-2.7,0.3c-1,0-1.9-0.1-2.8-0.4c-0.9-0.3-1.6-0.7-2.3-1.3
				s-1.2-1.3-1.5-2.1c-0.4-0.9-0.6-1.9-0.6-3c0-1,0.3-2,0.8-2.9c0.6-0.9,1.5-1.8,2.7-2.5c1.2-0.7,2.9-1.3,4.9-1.8
				c2-0.5,4.5-0.7,7.4-0.7v-2c0-2-0.4-3.5-1.3-4.6s-2.1-1.5-3.8-1.5c-1.1,0-2,0.1-2.8,0.4c-0.8,0.3-1.4,0.6-2,0.9
				c-0.6,0.3-1,0.7-1.4,0.9c-0.4,0.3-0.8,0.4-1.2,0.4c-0.3,0-0.6-0.1-0.8-0.2c-0.2-0.2-0.4-0.4-0.5-0.6l-0.8-1.4
				c1.4-1.4,3-2.4,4.6-3.1c1.6-0.7,3.5-1,5.5-1c1.4,0,2.7,0.2,3.8,0.7c1.1,0.5,2.1,1.1,2.8,2c0.8,0.8,1.3,1.9,1.7,3.1
				c0.4,1.2,0.6,2.5,0.6,4V502.7z M428.1,500c0.8,0,1.5-0.1,2.2-0.2c0.7-0.2,1.3-0.4,1.9-0.7c0.6-0.3,1.1-0.7,1.7-1.1
				c0.5-0.4,1.1-0.9,1.6-1.4v-5.3c-2.1,0-3.9,0.1-5.3,0.4c-1.5,0.3-2.6,0.6-3.6,1c-0.9,0.4-1.6,0.9-2,1.5s-0.6,1.2-0.6,1.9
				c0,0.7,0.1,1.3,0.3,1.8c0.2,0.5,0.5,0.9,0.9,1.2c0.4,0.3,0.8,0.5,1.3,0.7C426.9,499.9,427.5,500,428.1,500z"/>
			<path class="st0" d="M460.4,481.2c-0.2,0.4-0.5,0.6-0.9,0.6c-0.3,0-0.5-0.1-0.9-0.3c-0.3-0.2-0.7-0.4-1.2-0.6s-1-0.4-1.7-0.6
				c-0.6-0.2-1.4-0.3-2.3-0.3c-0.8,0-1.4,0.1-2.1,0.3c-0.6,0.2-1.1,0.5-1.6,0.8c-0.4,0.3-0.8,0.7-1,1.2c-0.2,0.4-0.3,0.9-0.3,1.5
				c0,0.7,0.2,1.2,0.6,1.7s0.9,0.8,1.5,1.1c0.6,0.3,1.3,0.6,2.1,0.9s1.6,0.5,2.5,0.8c0.8,0.3,1.7,0.6,2.5,0.9
				c0.8,0.3,1.5,0.8,2.1,1.3c0.6,0.5,1.1,1.1,1.5,1.9c0.4,0.7,0.6,1.6,0.6,2.7c0,1.2-0.2,2.3-0.6,3.3c-0.4,1-1.1,1.9-1.9,2.6
				c-0.8,0.7-1.8,1.3-3,1.7c-1.2,0.4-2.6,0.6-4.2,0.6c-1.8,0-3.4-0.3-4.9-0.9c-1.5-0.6-2.7-1.3-3.7-2.2l1.1-1.7
				c0.1-0.2,0.3-0.4,0.5-0.5c0.2-0.1,0.4-0.2,0.7-0.2s0.6,0.1,1,0.4c0.3,0.2,0.7,0.5,1.2,0.8c0.5,0.3,1.1,0.6,1.8,0.8
				c0.7,0.2,1.5,0.4,2.6,0.4c0.9,0,1.7-0.1,2.3-0.3c0.7-0.2,1.2-0.5,1.7-0.9s0.8-0.8,1-1.3c0.2-0.5,0.3-1,0.3-1.6
				c0-0.7-0.2-1.3-0.6-1.8c-0.4-0.5-0.9-0.9-1.5-1.2c-0.6-0.3-1.3-0.6-2.1-0.9c-0.8-0.2-1.6-0.5-2.5-0.8c-0.8-0.3-1.7-0.6-2.5-0.9
				c-0.8-0.3-1.5-0.8-2.1-1.3c-0.6-0.5-1.1-1.2-1.5-1.9c-0.4-0.8-0.6-1.7-0.6-2.8c0-1,0.2-1.9,0.6-2.8c0.4-0.9,1-1.7,1.8-2.4
				c0.8-0.7,1.7-1.2,2.9-1.6s2.4-0.6,3.9-0.6c1.7,0,3.2,0.3,4.6,0.8c1.3,0.5,2.5,1.3,3.5,2.2L460.4,481.2z"/>
			<path class="st0" d="M481.4,481.2c-0.2,0.4-0.5,0.6-0.9,0.6c-0.3,0-0.5-0.1-0.9-0.3c-0.3-0.2-0.7-0.4-1.2-0.6s-1-0.4-1.7-0.6
				c-0.6-0.2-1.4-0.3-2.3-0.3c-0.8,0-1.4,0.1-2.1,0.3c-0.6,0.2-1.1,0.5-1.6,0.8c-0.4,0.3-0.8,0.7-1,1.2c-0.2,0.4-0.3,0.9-0.3,1.5
				c0,0.7,0.2,1.2,0.6,1.7s0.9,0.8,1.5,1.1c0.6,0.3,1.3,0.6,2.1,0.9s1.6,0.5,2.5,0.8c0.8,0.3,1.7,0.6,2.5,0.9
				c0.8,0.3,1.5,0.8,2.1,1.3c0.6,0.5,1.1,1.1,1.5,1.9c0.4,0.7,0.6,1.6,0.6,2.7c0,1.2-0.2,2.3-0.6,3.3c-0.4,1-1.1,1.9-1.9,2.6
				c-0.8,0.7-1.8,1.3-3,1.7c-1.2,0.4-2.6,0.6-4.2,0.6c-1.8,0-3.4-0.3-4.9-0.9c-1.5-0.6-2.7-1.3-3.7-2.2l1.1-1.7
				c0.1-0.2,0.3-0.4,0.5-0.5c0.2-0.1,0.4-0.2,0.7-0.2s0.6,0.1,1,0.4c0.3,0.2,0.7,0.5,1.2,0.8c0.5,0.3,1.1,0.6,1.8,0.8
				c0.7,0.2,1.5,0.4,2.6,0.4c0.9,0,1.7-0.1,2.3-0.3c0.7-0.2,1.2-0.5,1.7-0.9s0.8-0.8,1-1.3c0.2-0.5,0.3-1,0.3-1.6
				c0-0.7-0.2-1.3-0.6-1.8c-0.4-0.5-0.9-0.9-1.5-1.2c-0.6-0.3-1.3-0.6-2.1-0.9c-0.8-0.2-1.6-0.5-2.5-0.8c-0.8-0.3-1.7-0.6-2.5-0.9
				c-0.8-0.3-1.5-0.8-2.1-1.3c-0.6-0.5-1.1-1.2-1.5-1.9c-0.4-0.8-0.6-1.7-0.6-2.8c0-1,0.2-1.9,0.6-2.8c0.4-0.9,1-1.7,1.8-2.4
				c0.8-0.7,1.7-1.2,2.9-1.6s2.4-0.6,3.9-0.6c1.7,0,3.2,0.3,4.6,0.8c1.3,0.5,2.5,1.3,3.5,2.2L481.4,481.2z"/>
			<path class="st0" d="M497.9,476.6c1.5,0,3,0.3,4.3,0.8c1.3,0.5,2.4,1.3,3.4,2.2c0.9,1,1.7,2.2,2.2,3.6c0.5,1.4,0.8,3.1,0.8,4.9
				c0,0.7-0.1,1.2-0.2,1.4s-0.4,0.4-0.9,0.4h-17.1c0,1.6,0.3,3,0.7,4.2c0.4,1.2,1,2.2,1.7,3c0.7,0.8,1.6,1.4,2.5,1.8
				c1,0.4,2.1,0.6,3.3,0.6c1.1,0,2.1-0.1,2.9-0.4c0.8-0.3,1.5-0.5,2.1-0.9c0.6-0.3,1.1-0.6,1.5-0.9c0.4-0.3,0.7-0.4,1-0.4
				c0.4,0,0.7,0.1,0.9,0.4l1.3,1.7c-0.6,0.7-1.2,1.3-2,1.8c-0.8,0.5-1.6,0.9-2.5,1.2c-0.9,0.3-1.8,0.6-2.8,0.7
				c-0.9,0.2-1.9,0.2-2.8,0.2c-1.8,0-3.4-0.3-4.9-0.9s-2.8-1.5-3.9-2.6s-1.9-2.6-2.6-4.3c-0.6-1.7-0.9-3.7-0.9-5.9
				c0-1.8,0.3-3.5,0.8-5c0.6-1.6,1.3-2.9,2.4-4.1c1-1.1,2.3-2,3.8-2.7C494.3,476.9,496,476.6,497.9,476.6z M498,479.9
				c-2.2,0-3.9,0.6-5.2,1.9c-1.3,1.3-2,3-2.3,5.2h14c0-1-0.1-2-0.4-2.9s-0.7-1.6-1.3-2.3c-0.6-0.6-1.2-1.1-2-1.5
				C499.9,480.1,499,479.9,498,479.9z"/>
			<path class="st0" d="M528,481.2c-0.2,0.4-0.5,0.6-0.9,0.6c-0.3,0-0.5-0.1-0.9-0.3c-0.3-0.2-0.7-0.4-1.2-0.6s-1-0.4-1.7-0.6
				c-0.6-0.2-1.4-0.3-2.3-0.3c-0.8,0-1.4,0.1-2.1,0.3c-0.6,0.2-1.1,0.5-1.6,0.8c-0.4,0.3-0.8,0.7-1,1.2c-0.2,0.4-0.3,0.9-0.3,1.5
				c0,0.7,0.2,1.2,0.6,1.7s0.9,0.8,1.5,1.1c0.6,0.3,1.3,0.6,2.1,0.9s1.6,0.5,2.5,0.8c0.8,0.3,1.7,0.6,2.5,0.9
				c0.8,0.3,1.5,0.8,2.1,1.3c0.6,0.5,1.1,1.1,1.5,1.9c0.4,0.7,0.6,1.6,0.6,2.7c0,1.2-0.2,2.3-0.6,3.3c-0.4,1-1.1,1.9-1.9,2.6
				c-0.8,0.7-1.8,1.3-3,1.7c-1.2,0.4-2.6,0.6-4.2,0.6c-1.8,0-3.4-0.3-4.9-0.9c-1.5-0.6-2.7-1.3-3.7-2.2l1.1-1.7
				c0.1-0.2,0.3-0.4,0.5-0.5c0.2-0.1,0.4-0.2,0.7-0.2s0.6,0.1,1,0.4c0.3,0.2,0.7,0.5,1.2,0.8c0.5,0.3,1.1,0.6,1.8,0.8
				c0.7,0.2,1.5,0.4,2.6,0.4c0.9,0,1.7-0.1,2.3-0.3c0.7-0.2,1.2-0.5,1.7-0.9s0.8-0.8,1-1.3c0.2-0.5,0.3-1,0.3-1.6
				c0-0.7-0.2-1.3-0.6-1.8c-0.4-0.5-0.9-0.9-1.5-1.2c-0.6-0.3-1.3-0.6-2.1-0.9c-0.8-0.2-1.6-0.5-2.5-0.8c-0.8-0.3-1.7-0.6-2.5-0.9
				c-0.8-0.3-1.5-0.8-2.1-1.3c-0.6-0.5-1.1-1.2-1.5-1.9c-0.4-0.8-0.6-1.7-0.6-2.8c0-1,0.2-1.9,0.6-2.8c0.4-0.9,1-1.7,1.8-2.4
				c0.8-0.7,1.7-1.2,2.9-1.6s2.4-0.6,3.9-0.6c1.7,0,3.2,0.3,4.6,0.8c1.3,0.5,2.5,1.3,3.5,2.2L528,481.2z"/>
			<path class="st0" d="M549.1,481.2c-0.2,0.4-0.5,0.6-0.9,0.6c-0.3,0-0.5-0.1-0.9-0.3c-0.3-0.2-0.7-0.4-1.2-0.6s-1-0.4-1.7-0.6
				c-0.6-0.2-1.4-0.3-2.3-0.3c-0.8,0-1.4,0.1-2.1,0.3c-0.6,0.2-1.1,0.5-1.6,0.8c-0.4,0.3-0.8,0.7-1,1.2c-0.2,0.4-0.3,0.9-0.3,1.5
				c0,0.7,0.2,1.2,0.6,1.7s0.9,0.8,1.5,1.1c0.6,0.3,1.3,0.6,2.1,0.9s1.6,0.5,2.5,0.8c0.8,0.3,1.7,0.6,2.5,0.9
				c0.8,0.3,1.5,0.8,2.1,1.3c0.6,0.5,1.1,1.1,1.5,1.9c0.4,0.7,0.6,1.6,0.6,2.7c0,1.2-0.2,2.3-0.6,3.3c-0.4,1-1.1,1.9-1.9,2.6
				c-0.8,0.7-1.8,1.3-3,1.7c-1.2,0.4-2.6,0.6-4.2,0.6c-1.8,0-3.4-0.3-4.9-0.9c-1.5-0.6-2.7-1.3-3.7-2.2l1.1-1.7
				c0.1-0.2,0.3-0.4,0.5-0.5c0.2-0.1,0.4-0.2,0.7-0.2s0.6,0.1,1,0.4c0.3,0.2,0.7,0.5,1.2,0.8c0.5,0.3,1.1,0.6,1.8,0.8
				c0.7,0.2,1.5,0.4,2.6,0.4c0.9,0,1.7-0.1,2.3-0.3c0.7-0.2,1.2-0.5,1.7-0.9s0.8-0.8,1-1.3c0.2-0.5,0.3-1,0.3-1.6
				c0-0.7-0.2-1.3-0.6-1.8c-0.4-0.5-0.9-0.9-1.5-1.2c-0.6-0.3-1.3-0.6-2.1-0.9c-0.8-0.2-1.6-0.5-2.5-0.8c-0.8-0.3-1.7-0.6-2.5-0.9
				c-0.8-0.3-1.5-0.8-2.1-1.3c-0.6-0.5-1.1-1.2-1.5-1.9c-0.4-0.8-0.6-1.7-0.6-2.8c0-1,0.2-1.9,0.6-2.8c0.4-0.9,1-1.7,1.8-2.4
				c0.8-0.7,1.7-1.2,2.9-1.6s2.4-0.6,3.9-0.6c1.7,0,3.2,0.3,4.6,0.8c1.3,0.5,2.5,1.3,3.5,2.2L549.1,481.2z"/>
			<path class="st0" d="M555.4,502.7V477h2.7c0.6,0,1,0.3,1.2,0.9l0.3,2.6c0.9-1.2,2-2.1,3.2-2.9s2.5-1.1,4.1-1.1
				c1.7,0,3.2,0.5,4.2,1.4c1.1,1,1.8,2.3,2.3,3.9c0.4-0.9,0.8-1.7,1.4-2.4c0.6-0.7,1.2-1.2,2-1.7c0.7-0.4,1.5-0.8,2.3-1
				s1.7-0.3,2.5-0.3c1.4,0,2.6,0.2,3.6,0.6s2,1.1,2.7,1.9c0.7,0.8,1.3,1.9,1.7,3.1s0.6,2.6,0.6,4.2v16.4h-4.5v-16.4
				c0-2-0.4-3.5-1.3-4.6c-0.9-1-2.2-1.6-3.8-1.6c-0.7,0-1.5,0.1-2.1,0.4c-0.7,0.3-1.3,0.6-1.8,1.2c-0.5,0.5-0.9,1.1-1.2,1.9
				c-0.3,0.8-0.4,1.7-0.4,2.7v16.4h-4.5v-16.4c0-2.1-0.4-3.6-1.2-4.6c-0.8-1-2-1.5-3.6-1.5c-1.1,0-2.2,0.3-3.1,0.9
				c-1,0.6-1.8,1.4-2.6,2.5v19.2H555.4z"/>
			<path class="st0" d="M606.3,476.6c1.5,0,3,0.3,4.3,0.8c1.3,0.5,2.4,1.3,3.4,2.2c0.9,1,1.7,2.2,2.2,3.6c0.5,1.4,0.8,3.1,0.8,4.9
				c0,0.7-0.1,1.2-0.2,1.4s-0.4,0.4-0.9,0.4h-17.1c0,1.6,0.3,3,0.7,4.2c0.4,1.2,1,2.2,1.7,3c0.7,0.8,1.6,1.4,2.5,1.8
				c1,0.4,2.1,0.6,3.3,0.6c1.1,0,2.1-0.1,2.9-0.4c0.8-0.3,1.5-0.5,2.1-0.9c0.6-0.3,1.1-0.6,1.5-0.9c0.4-0.3,0.7-0.4,1-0.4
				c0.4,0,0.7,0.1,0.9,0.4l1.3,1.7c-0.6,0.7-1.2,1.3-2,1.8c-0.8,0.5-1.6,0.9-2.5,1.2c-0.9,0.3-1.8,0.6-2.8,0.7
				c-0.9,0.2-1.9,0.2-2.8,0.2c-1.8,0-3.4-0.3-4.9-0.9s-2.8-1.5-3.9-2.6s-1.9-2.6-2.6-4.3c-0.6-1.7-0.9-3.7-0.9-5.9
				c0-1.8,0.3-3.5,0.8-5c0.6-1.6,1.3-2.9,2.4-4.1c1-1.1,2.3-2,3.8-2.7C602.7,476.9,604.4,476.6,606.3,476.6z M606.4,479.9
				c-2.2,0-3.9,0.6-5.2,1.9c-1.3,1.3-2,3-2.3,5.2h14c0-1-0.1-2-0.4-2.9s-0.7-1.6-1.3-2.3c-0.6-0.6-1.2-1.1-2-1.5
				C608.3,480.1,607.4,479.9,606.4,479.9z"/>
			<path class="st0" d="M621.7,502.7V477h2.7c0.6,0,1,0.3,1.2,0.9l0.4,2.8c1.1-1.2,2.4-2.2,3.7-3c1.4-0.8,3-1.1,4.8-1.1
				c1.4,0,2.6,0.2,3.7,0.7c1.1,0.5,2,1.1,2.7,2c0.7,0.9,1.3,1.9,1.6,3.1c0.4,1.2,0.6,2.5,0.6,4v16.4h-4.5v-16.4
				c0-1.9-0.4-3.5-1.3-4.5c-0.9-1.1-2.2-1.6-4.1-1.6c-1.3,0-2.6,0.3-3.7,1c-1.2,0.6-2.2,1.5-3.2,2.6v19H621.7z"/>
			<path class="st0" d="M656.7,503.1c-2,0-3.6-0.6-4.7-1.7c-1.1-1.1-1.6-2.8-1.6-4.9v-15.8h-3.1c-0.3,0-0.5-0.1-0.7-0.2
				c-0.2-0.2-0.3-0.4-0.3-0.7V478l4.2-0.5l1-8c0-0.3,0.1-0.5,0.3-0.6c0.2-0.2,0.4-0.2,0.7-0.2h2.3v8.9h7.4v3.3h-7.4v15.4
				c0,1.1,0.3,1.9,0.8,2.4c0.5,0.5,1.2,0.8,2,0.8c0.5,0,0.9-0.1,1.2-0.2c0.3-0.1,0.6-0.3,0.9-0.4s0.5-0.3,0.6-0.4s0.3-0.2,0.5-0.2
				c0.2,0,0.4,0.1,0.6,0.4l1.3,2.2c-0.8,0.7-1.7,1.3-2.8,1.7S657.9,503.1,656.7,503.1z"/>
		</g>
	</g>
</g>
</svg>
